# xmcd
#
# Track frame offsets:
#	150
#	16703
#	34597
#	51588
#	70069
#	87451
#	102190
#	118660
#	134727
#	151599
#	168290
#	184317
#	200160
#	215050
#	232084
#	247390
#	266335
#	285331
#	299512
#
# Disc length: 4280 seconds
#
# Revision: 1
# Processed by: cddbd v1.4PL0 Copyright (c) Steve Scherf et al.
# Submitted via: audiograbber 1.80
#
DISCID=2410b613
DTITLE=Various Artist - Hott Country 007
DYEAR=1900
DGENRE=
TTITLE0=Alabama - The Maker Said Take Her
TTITLE1=Terri Clark - Suddenly SIngle
TTITLE2=Collin Raye - Love Remains
TTITLE3=Vince Gill - Worlds Apart
TTITLE4=David Lee Murphy - The Road You Leave Behind
TTITLE5=John Berry - Change My Mind
TTITLE6=Paul Brandt - I Do
TTITLE7=James Bonamy - I Don't Think I Will
TTITLE8=Billy Dean - That Girls Been Spying On Me
TTITLE9=Trisha Yearwood - Baby Believe Me I Lied
TTITLE10=Tracy Lawrence - Stars Over Texas
TTITLE11=Patty Loveless - A Thousand Times A Day
TTITLE12=George Strait - Carried Away
TTITLE13=Larry Stewart - Why Can't You
TTITLE14=Travis Tritt - More Than You Will Ever Know
TTITLE15=Doug Supernaw - You Still Got Me
TTITLE16=Shania Twain - Home Ain't Where His Heart Is
TTITLE17=Mindy McCready - Guys Do It All The Time
TTITLE18=Toby Keith - A Woman's Touch
EXTD=
EXTT0=
EXTT1=
EXTT2=
EXTT3=
EXTT4=
EXTT5=
EXTT6=
EXTT7=
EXTT8=
EXTT9=
EXTT10=
EXTT11=
EXTT12=
EXTT13=
EXTT14=
EXTT15=
EXTT16=
EXTT17=
EXTT18=
PLAYORDER=
